<?xml version="1.0" encoding="utf-8"?>
<svg xmlns="http://www.w3.org/2000/svg"
	xmlns:xlink="http://www.w3.org/1999/xlink"
	version="1.1"	viewBox="0 0 32 32"	xml:space="preserve">
	<path
		fill="#ffad2c"
		stroke="#3d3d3d"
		stroke-width="0.5"
		stroke-linejoin="round"
		stroke-linecap="round"
		d="M2.00,5.00L16.00,2.00L30.00,5.00L27.00,30.00L5.00,30.00z"/>
	<path
		fill="#000000"
		fill-opacity="0.5"
		d="M7.36,10.58Q8.33,13.49,10.14,16.08L5.81,26.63L11.90,26.63L14.27,20.08Q15.15,20.63,16.38,21.01L16.52,26.59L22.11,26.61L21.39,20.14C27.25,16.26,28.11,5.36,19.75,5.26L14.90,5.27L11.37,13.50Q9.15,12.28,7.36,10.58z"/>
	<path
		fill="#00a5ff"
		d="M15.05,5.73L6.50,26.22L11.28,21.04z"/>
	<path
		fill="#0073b2"
		d="M11.48,26.29L19.48,5.70L12.69,15.30L11.28,21.04z"/>
	<path
		fill="#66c9ff"
		d="M15.05,5.71L19.48,5.70L12.69,15.30z"/>
	<path
		fill="#001d95"
		d="M19.47,5.75C33.62,5.03,20.06,35.79,7.99,11.63C19.30,21.94,26.10,11.42,19.47,5.75z"/>
	<path
		fill="#00a5ff"
		d="M16.83,26.30L16.56,13.13L19.48,5.70z"/>
	<path
		fill="#5dc6ff"
		d="M19.48,5.70L18.09,15.86L21.63,26.30z"/>
	<path
		fill="#00649b"
		d="M6.49,26.22L11.28,21.04L11.48,26.29z M16.83,26.30L18.09,15.86L21.63,26.30z"/>
</svg>