<?xml version="1.0" encoding="utf-8"?>
<svg xmlns="http://www.w3.org/2000/svg"
	xmlns:xlink="http://www.w3.org/1999/xlink"
	version="1.1"	viewBox="0 0 32 32"	xml:space="preserve">
	<path
		fill="#ED9100"
		d="M2.00,5.00L16.00,2.00L30.00,5.00L27.00,30.00L5.00,30.00"/>
	<path
		fill="#00A5FF"
		d="M14.60,5.70L5.58,26.19L10.82,21.02z"/>
	<path
		fill="#0073B2"
		d="M11.64,26.27L19.02,5.67L12.23,15.27L10.82,21.02z"/>
	<path
		fill="#004983"
		d="M19.02,5.68C26.42,6.91,21.21,16.20,14.77,16.82z"/>
	<path
		fill="#00649B"
		d="M5.58,26.19L10.82,21.02L11.73,26.18z M21.71,26.27L20.97,20.63L26.42,26.33z"/>
	<path
	  id="moon"
		fill="#001D95"
		d="M19.01,5.72C31.28,5.38,20.08,27.15,8.96,14.98C18.81,20.98,27.62,7.43,19.01,5.72z"/>
	<path
		fill="#00A5FF"
		d="M21.71,26.27L16.51,12.21L19.02,5.68z"/>
	<path
		fill="#66C9FF"
		d="M19.02,5.68L20.92,20.58L26.42,26.33z M14.59,5.68L19.02,5.68L12.23,15.27z"/>
</svg>