<svg xmlns="http://www.w3.org/2000/svg" width="100%" height="100%" viewBox="0 0 800 500" enable-background="new 0 0 24.0 24.0">
  <defs>
    <linearGradient id="dY" x1="0" x2="1" y1="0" y2="0" gradientTransform="matrix(0 35.90332 35.90332 0 304.545 130.387)" gradientUnits="userSpaceOnUse" spreadMethod="pad">
      <stop offset="0" style="stop-opacity:1;stop-color:#231f20" />
      <stop offset=".485" style="stop-opacity:1;stop-color:#231f20" />
      <stop offset="1" style="stop-opacity:1;stop-color:#231f20" />
    </linearGradient>
    <linearGradient id="ea" x1="0" x2="1" y1="0" y2="0" gradientTransform="matrix(0 35.4248 35.4248 0 304.56 130.552)" gradientUnits="userSpaceOnUse" spreadMethod="pad">
      <stop offset="0" style="stop-opacity:1;stop-color:#2b292a" />
      <stop offset=".48" style="stop-opacity:1;stop-color:#231f20" />
      <stop offset="1" style="stop-opacity:1;stop-color:#231f20" />
    </linearGradient>
    <linearGradient id="eb" x1="0" x2="1" y1="0" y2="0" gradientTransform="matrix(0 35.18652 35.18652 0 304.567 130.634)" gradientUnits="userSpaceOnUse" spreadMethod="pad">
      <stop offset="0" style="stop-opacity:1;stop-color:#302e30" />
      <stop offset=".477" style="stop-opacity:1;stop-color:#231f20" />
      <stop offset="1" style="stop-opacity:1;stop-color:#231f20" />
    </linearGradient>
    <linearGradient id="ec" x1="0" x2="1" y1="0" y2="0" gradientTransform="matrix(0 34.94727 34.94727 0 304.574 130.716)" gradientUnits="userSpaceOnUse" spreadMethod="pad">
      <stop offset="0" style="stop-opacity:1;stop-color:#343234" />
      <stop offset=".475" style="stop-opacity:1;stop-color:#231f20" />
      <stop offset="1" style="stop-opacity:1;stop-color:#231f20" />
    </linearGradient>
    <linearGradient id="ed" x1="0" x2="1" y1="0" y2="0" gradientTransform="matrix(0 34.708 34.708 0 304.582 130.799)" gradientUnits="userSpaceOnUse" spreadMethod="pad">
      <stop offset="0" style="stop-opacity:1;stop-color:#393739" />
      <stop offset=".472" style="stop-opacity:1;stop-color:#231f20" />
      <stop offset="1" style="stop-opacity:1;stop-color:#231f20" />
    </linearGradient>
    <linearGradient id="ee" x1="0" x2="1" y1="0" y2="0" gradientTransform="matrix(0 34.46973 34.46973 0 304.59 130.88)" gradientUnits="userSpaceOnUse" spreadMethod="pad">
      <stop offset="0" style="stop-opacity:1;stop-color:#3d3c3e" />
      <stop offset=".47" style="stop-opacity:1;stop-color:#231f20" />
      <stop offset="1" style="stop-opacity:1;stop-color:#231f20" />
    </linearGradient>
    <linearGradient id="ef" x1="0" x2="1" y1="0" y2="0" gradientTransform="matrix(0 34.2295 34.2295 0 304.597 130.964)" gradientUnits="userSpaceOnUse" spreadMethod="pad">
      <stop offset="0" style="stop-opacity:1;stop-color:#403f41" />
      <stop offset=".467" style="stop-opacity:1;stop-color:#231f20" />
      <stop offset="1" style="stop-opacity:1;stop-color:#231f20" />
    </linearGradient>
    <linearGradient id="eg" x1="0" x2="1" y1="0" y2="0" gradientTransform="matrix(0 33.99121 33.99121 0 304.604 131.046)" gradientUnits="userSpaceOnUse" spreadMethod="pad">
      <stop offset="0" style="stop-opacity:1;stop-color:#444445" />
      <stop offset=".465" style="stop-opacity:1;stop-color:#231f20" />
      <stop offset="1" style="stop-opacity:1;stop-color:#231f20" />
    </linearGradient>
    <linearGradient id="eh" x1="0" x2="1" y1="0" y2="0" gradientTransform="matrix(0 33.75195 33.75195 0 304.61 131.128)" gradientUnits="userSpaceOnUse" spreadMethod="pad">
      <stop offset="0" style="stop-opacity:1;stop-color:#474749" />
      <stop offset=".462" style="stop-opacity:1;stop-color:#231f20" />
      <stop offset="1" style="stop-opacity:1;stop-color:#231f20" />
    </linearGradient>
    <linearGradient id="ei" x1="0" x2="1" y1="0" y2="0" gradientTransform="matrix(0 33.5127 33.5127 0 304.619 131.21)" gradientUnits="userSpaceOnUse" spreadMethod="pad">
      <stop offset="0" style="stop-opacity:1;stop-color:#4b4b4d" />
      <stop offset=".46" style="stop-opacity:1;stop-color:#231f20" />
      <stop offset="1" style="stop-opacity:1;stop-color:#231f20" />
    </linearGradient>
    <linearGradient id="ej" x1="0" x2="1" y1="0" y2="0" gradientTransform="matrix(0 33.27441 33.27441 0 304.625 131.293)" gradientUnits="userSpaceOnUse" spreadMethod="pad">
      <stop offset="0" style="stop-opacity:1;stop-color:#4e4f51" />
      <stop offset=".458" style="stop-opacity:1;stop-color:#231f20" />
      <stop offset="1" style="stop-opacity:1;stop-color:#231f20" />
    </linearGradient>
    <linearGradient id="ek" x1="0" x2="1" y1="0" y2="0" gradientTransform="scale(33.03516) rotate(90 2.622 6.6)" gradientUnits="userSpaceOnUse" spreadMethod="pad">
      <stop offset="0" style="stop-opacity:1;stop-color:#515153" />
      <stop offset=".455" style="stop-opacity:1;stop-color:#231f20" />
      <stop offset="1" style="stop-opacity:1;stop-color:#231f20" />
    </linearGradient>
    <linearGradient id="el" x1="0" x2="1" y1="0" y2="0" gradientTransform="matrix(0 32.7959 32.7959 0 304.64 131.458)" gradientUnits="userSpaceOnUse" spreadMethod="pad">
      <stop offset="0" style="stop-opacity:1;stop-color:#545557" />
      <stop offset=".453" style="stop-opacity:1;stop-color:#231f20" />
      <stop offset="1" style="stop-opacity:1;stop-color:#231f20" />
    </linearGradient>
    <linearGradient id="em" x1="0" x2="1" y1="0" y2="0" gradientTransform="matrix(0 32.55664 32.55664 0 304.648 131.54)" gradientUnits="userSpaceOnUse" spreadMethod="pad">
      <stop offset="0" style="stop-opacity:1;stop-color:#57585a" />
      <stop offset=".45" style="stop-opacity:1;stop-color:#231f20" />
      <stop offset="1" style="stop-opacity:1;stop-color:#231f20" />
    </linearGradient>
    <linearGradient id="en" x1="0" x2="1" y1="0" y2="0" gradientTransform="matrix(0 32.31836 32.31836 0 304.655 131.622)" gradientUnits="userSpaceOnUse" spreadMethod="pad">
      <stop offset="0" style="stop-opacity:1;stop-color:#5b5b5e" />
      <stop offset=".448" style="stop-opacity:1;stop-color:#231f20" />
      <stop offset="1" style="stop-opacity:1;stop-color:#231f20" />
    </linearGradient>
    <linearGradient id="eo" x1="0" x2="1" y1="0" y2="0" gradientTransform="matrix(0 32.0791 32.0791 0 304.663 131.705)" gradientUnits="userSpaceOnUse" spreadMethod="pad">
      <stop offset="0" style="stop-opacity:1;stop-color:#5e5f61" />
      <stop offset=".445" style="stop-opacity:1;stop-color:#231f20" />
      <stop offset="1" style="stop-opacity:1;stop-color:#231f20" />
    </linearGradient>
    <linearGradient id="ep" x1="0" x2="1" y1="0" y2="0" gradientTransform="matrix(0 31.83984 31.83984 0 304.67 131.787)" gradientUnits="userSpaceOnUse" spreadMethod="pad">
      <stop offset="0" style="stop-opacity:1;stop-color:#606264" />
      <stop offset=".443" style="stop-opacity:1;stop-color:#231f20" />
      <stop offset="1" style="stop-opacity:1;stop-color:#231f20" />
    </linearGradient>
    <linearGradient id="eq" x1="0" x2="1" y1="0" y2="0" gradientTransform="matrix(0 31.60156 31.60156 0 304.677 131.87)" gradientUnits="userSpaceOnUse" spreadMethod="pad">
      <stop offset="0" style="stop-opacity:1;stop-color:#646567" />
      <stop offset=".441" style="stop-opacity:1;stop-color:#231f20" />
      <stop offset="1" style="stop-opacity:1;stop-color:#231f20" />
    </linearGradient>
    <linearGradient id="er" x1="0" x2="1" y1="0" y2="0" gradientTransform="matrix(0 31.3623 31.3623 0 304.684 131.952)" gradientUnits="userSpaceOnUse" spreadMethod="pad">
      <stop offset="0" style="stop-opacity:1;stop-color:#66676a" />
      <stop offset=".438" style="stop-opacity:1;stop-color:#231f20" />
      <stop offset="1" style="stop-opacity:1;stop-color:#231f20" />
    </linearGradient>
    <linearGradient id="es" x1="0" x2="1" y1="0" y2="0" gradientTransform="matrix(0 31.12305 31.12305 0 304.691 132.034)" gradientUnits="userSpaceOnUse" spreadMethod="pad">
      <stop offset="0" style="stop-opacity:1;stop-color:#696b6d" />
      <stop offset=".436" style="stop-opacity:1;stop-color:#231f20" />
      <stop offset="1" style="stop-opacity:1;stop-color:#231f20" />
    </linearGradient>
    <linearGradient id="et" x1="0" x2="1" y1="0" y2="0" gradientTransform="matrix(0 30.88379 30.88379 0 304.7 132.117)" gradientUnits="userSpaceOnUse" spreadMethod="pad">
      <stop offset="0" style="stop-opacity:1;stop-color:#6c6d70" />
      <stop offset=".433" style="stop-opacity:1;stop-color:#231f20" />
      <stop offset="1" style="stop-opacity:1;stop-color:#231f20" />
    </linearGradient>
    <linearGradient id="eu" x1="0" x2="1" y1="0" y2="0" gradientTransform="matrix(0 30.64453 30.64453 0 304.707 132.2)" gradientUnits="userSpaceOnUse" spreadMethod="pad">
      <stop offset="0" style="stop-opacity:1;stop-color:#6f7073" />
      <stop offset=".431" style="stop-opacity:1;stop-color:#231f20" />
      <stop offset="1" style="stop-opacity:1;stop-color:#231f20" />
    </linearGradient>
    <linearGradient id="ev" x1="0" x2="1" y1="0" y2="0" gradientTransform="matrix(0 30.40625 30.40625 0 304.713 132.281)" gradientUnits="userSpaceOnUse" spreadMethod="pad">
      <stop offset="0" style="stop-opacity:1;stop-color:#727476" />
      <stop offset=".429" style="stop-opacity:1;stop-color:#231f20" />
      <stop offset="1" style="stop-opacity:1;stop-color:#231f20" />
    </linearGradient>
    <linearGradient id="ew" x1="0" x2="1" y1="0" y2="0" gradientTransform="matrix(0 30.167 30.167 0 304.721 132.364)" gradientUnits="userSpaceOnUse" spreadMethod="pad">
      <stop offset="0" style="stop-opacity:1;stop-color:#747678" />
      <stop offset=".426" style="stop-opacity:1;stop-color:#231f20" />
      <stop offset="1" style="stop-opacity:1;stop-color:#231f20" />
    </linearGradient>
    <linearGradient id="ex" x1="0" x2="1" y1="0" y2="0" gradientTransform="matrix(0 29.92773 29.92773 0 304.728 132.446)" gradientUnits="userSpaceOnUse" spreadMethod="pad">
      <stop offset="0" style="stop-opacity:1;stop-color:#77797b" />
      <stop offset=".424" style="stop-opacity:1;stop-color:#231f20" />
      <stop offset="1" style="stop-opacity:1;stop-color:#231f20" />
    </linearGradient>
    <linearGradient id="ey" x1="0" x2="1" y1="0" y2="0" gradientTransform="scale(29.68945) rotate(90 2.9 7.364)" gradientUnits="userSpaceOnUse" spreadMethod="pad">
      <stop offset="0" style="stop-opacity:1;stop-color:#7a7b7e" />
      <stop offset=".421" style="stop-opacity:1;stop-color:#231f20" />
      <stop offset="1" style="stop-opacity:1;stop-color:#231f20" />
    </linearGradient>
    <linearGradient id="ez" x1="0" x2="1" y1="0" y2="0" gradientTransform="matrix(0 29.44922 29.44922 0 304.743 132.611)" gradientUnits="userSpaceOnUse" spreadMethod="pad">
      <stop offset="0" style="stop-opacity:1;stop-color:#7c7e81" />
      <stop offset=".419" style="stop-opacity:1;stop-color:#231f20" />
      <stop offset="1" style="stop-opacity:1;stop-color:#231f20" />
    </linearGradient>
    <linearGradient id="eA" x1="0" x2="1" y1="0" y2="0" gradientTransform="matrix(0 29.21094 29.21094 0 304.75 132.693)" gradientUnits="userSpaceOnUse" spreadMethod="pad">
      <stop offset="0" style="stop-opacity:1;stop-color:#7f8184" />
      <stop offset=".417" style="stop-opacity:1;stop-color:#231f20" />
      <stop offset="1" style="stop-opacity:1;stop-color:#231f20" />
    </linearGradient>
    <linearGradient id="eB" x1="0" x2="1" y1="0" y2="0" gradientTransform="matrix(0 28.97266 28.97266 0 304.757 132.775)" gradientUnits="userSpaceOnUse" spreadMethod="pad">
      <stop offset="0" style="stop-opacity:1;stop-color:#828486" />
      <stop offset=".414" style="stop-opacity:1;stop-color:#231f20" />
      <stop offset="1" style="stop-opacity:1;stop-color:#231f20" />
    </linearGradient>
    <linearGradient id="eC" x1="0" x2="1" y1="0" y2="0" gradientTransform="matrix(0 28.73242 28.73242 0 304.765 132.858)" gradientUnits="userSpaceOnUse" spreadMethod="pad">
      <stop offset="0" style="stop-opacity:1;stop-color:#858789" />
      <stop offset=".412" style="stop-opacity:1;stop-color:#231f20" />
      <stop offset="1" style="stop-opacity:1;stop-color:#231f20" />
    </linearGradient>
    <linearGradient id="eD" x1="0" x2="1" y1="0" y2="0" gradientTransform="matrix(0 28.49414 28.49414 0 304.772 132.94)" gradientUnits="userSpaceOnUse" spreadMethod="pad">
      <stop offset="0" style="stop-opacity:1;stop-color:#87898b" />
      <stop offset=".41" style="stop-opacity:1;stop-color:#231f20" />
      <stop offset="1" style="stop-opacity:1;stop-color:#231f20" />
    </linearGradient>
    <linearGradient id="eE" x1="0" x2="1" y1="0" y2="0" gradientTransform="matrix(0 28.2539 28.2539 0 304.78 133.023)" gradientUnits="userSpaceOnUse" spreadMethod="pad">
      <stop offset="0" style="stop-opacity:1;stop-color:#8a8c8e" />
      <stop offset=".407" style="stop-opacity:1;stop-color:#231f20" />
      <stop offset="1" style="stop-opacity:1;stop-color:#231f20" />
    </linearGradient>
    <linearGradient id="eF" x1="0" x2="1" y1="0" y2="0" gradientTransform="matrix(0 28.01563 28.01563 0 304.787 133.105)" gradientUnits="userSpaceOnUse" spreadMethod="pad">
      <stop offset="0" style="stop-opacity:1;stop-color:#8d8f91" />
      <stop offset=".405" style="stop-opacity:1;stop-color:#231f20" />
      <stop offset="1" style="stop-opacity:1;stop-color:#231f20" />
    </linearGradient>
    <linearGradient id="eG" x1="0" x2="1" y1="0" y2="0" gradientTransform="matrix(0 27.77734 27.77734 0 304.794 133.188)" gradientUnits="userSpaceOnUse" spreadMethod="pad">
      <stop offset="0" style="stop-opacity:1;stop-color:#8f9194" />
      <stop offset=".403" style="stop-opacity:1;stop-color:#231f20" />
      <stop offset="1" style="stop-opacity:1;stop-color:#231f20" />
    </linearGradient>
    <linearGradient id="eH" x1="0" x2="1" y1="0" y2="0" gradientTransform="matrix(0 27.5371 27.5371 0 304.801 133.27)" gradientUnits="userSpaceOnUse" spreadMethod="pad">
      <stop offset="0" style="stop-opacity:1;stop-color:#929497" />
      <stop offset=".4" style="stop-opacity:1;stop-color:#231f20" />
      <stop offset="1" style="stop-opacity:1;stop-color:#231f20" />
    </linearGradient>
    <linearGradient id="eI" x1="0" x2="1" y1="0" y2="0" gradientTransform="matrix(0 27.29883 27.29883 0 304.809 133.353)" gradientUnits="userSpaceOnUse" spreadMethod="pad">
      <stop offset="0" style="stop-opacity:1;stop-color:#949699" />
      <stop offset=".398" style="stop-opacity:1;stop-color:#231f20" />
      <stop offset="1" style="stop-opacity:1;stop-color:#231f20" />
    </linearGradient>
    <linearGradient id="eJ" x1="0" x2="1" y1="0" y2="0" gradientTransform="matrix(0 27.05957 27.05957 0 304.816 133.435)" gradientUnits="userSpaceOnUse" spreadMethod="pad">
      <stop offset="0" style="stop-opacity:1;stop-color:#97999c" />
      <stop offset=".396" style="stop-opacity:1;stop-color:#231f20" />
      <stop offset="1" style="stop-opacity:1;stop-color:#231f20" />
    </linearGradient>
    <linearGradient id="eK" x1="0" x2="1" y1="0" y2="0" gradientTransform="matrix(0 26.82031 26.82031 0 304.824 133.518)" gradientUnits="userSpaceOnUse" spreadMethod="pad">
      <stop offset="0" style="stop-opacity:1;stop-color:#9a9d9f" />
      <stop offset=".393" style="stop-opacity:1;stop-color:#231f20" />
      <stop offset="1" style="stop-opacity:1;stop-color:#231f20" />
    </linearGradient>
    <linearGradient id="eL" x1="0" x2="1" y1="0" y2="0" gradientTransform="matrix(0 26.58203 26.58203 0 304.83 133.6)" gradientUnits="userSpaceOnUse" spreadMethod="pad">
      <stop offset="0" style="stop-opacity:1;stop-color:#9d9fa2" />
      <stop offset=".391" style="stop-opacity:1;stop-color:#231f20" />
      <stop offset="1" style="stop-opacity:1;stop-color:#231f20" />
    </linearGradient>
    <linearGradient id="eM" x1="0" x2="1" y1="0" y2="0" gradientTransform="matrix(0 26.34277 26.34277 0 304.837 133.682)" gradientUnits="userSpaceOnUse" spreadMethod="pad">
      <stop offset="0" style="stop-opacity:1;stop-color:#a0a2a5" />
      <stop offset=".389" style="stop-opacity:1;stop-color:#231f20" />
      <stop offset="1" style="stop-opacity:1;stop-color:#231f20" />
    </linearGradient>
    <linearGradient id="eN" x1="0" x2="1" y1="0" y2="0" gradientTransform="matrix(0 26.10352 26.10352 0 304.845 133.765)" gradientUnits="userSpaceOnUse" spreadMethod="pad">
      <stop offset="0" style="stop-opacity:1;stop-color:#a2a4a7" />
      <stop offset=".386" style="stop-opacity:1;stop-color:#231f20" />
      <stop offset="1" style="stop-opacity:1;stop-color:#231f20" />
    </linearGradient>
    <linearGradient id="eO" x1="0" x2="1" y1="0" y2="0" gradientTransform="matrix(0 25.86426 25.86426 0 304.853 133.847)" gradientUnits="userSpaceOnUse" spreadMethod="pad">
      <stop offset="0" style="stop-opacity:1;stop-color:#a5a8aa" />
      <stop offset=".384" style="stop-opacity:1;stop-color:#231f20" />
      <stop offset="1" style="stop-opacity:1;stop-color:#231f20" />
    </linearGradient>
    <linearGradient id="eP" x1="0" x2="1" y1="0" y2="0" gradientTransform="matrix(0 25.625 25.625 0 304.86 133.93)" gradientUnits="userSpaceOnUse" spreadMethod="pad">
      <stop offset="0" style="stop-opacity:1;stop-color:#a9abad" />
      <stop offset=".382" style="stop-opacity:1;stop-color:#231f20" />
      <stop offset="1" style="stop-opacity:1;stop-color:#231f20" />
    </linearGradient>
    <linearGradient id="eQ" x1="0" x2="1" y1="0" y2="0" gradientTransform="matrix(0 25.38672 25.38672 0 304.868 134.012)" gradientUnits="userSpaceOnUse" spreadMethod="pad">
      <stop offset="0" style="stop-opacity:1;stop-color:#abadb0" />
      <stop offset=".379" style="stop-opacity:1;stop-color:#231f20" />
      <stop offset="1" style="stop-opacity:1;stop-color:#231f20" />
    </linearGradient>
    <linearGradient id="eR" x1="0" x2="1" y1="0" y2="0" gradientTransform="matrix(0 25.14746 25.14746 0 304.875 134.094)" gradientUnits="userSpaceOnUse" spreadMethod="pad">
      <stop offset="0" style="stop-opacity:1;stop-color:#aeb0b3" />
      <stop offset=".377" style="stop-opacity:1;stop-color:#231f20" />
      <stop offset="1" style="stop-opacity:1;stop-color:#231f20" />
    </linearGradient>
    <linearGradient id="eS" x1="0" x2="1" y1="0" y2="0" gradientTransform="matrix(0 24.9082 24.9082 0 304.882 134.177)" gradientUnits="userSpaceOnUse" spreadMethod="pad">
      <stop offset="0" style="stop-opacity:1;stop-color:#b1b3b5" />
      <stop offset=".375" style="stop-opacity:1;stop-color:#231f20" />
      <stop offset="1" style="stop-opacity:1;stop-color:#231f20" />
    </linearGradient>
    <linearGradient id="eT" x1="0" x2="1" y1="0" y2="0" gradientTransform="matrix(0 24.66992 24.66992 0 304.89 134.259)" gradientUnits="userSpaceOnUse" spreadMethod="pad">
      <stop offset="0" style="stop-opacity:1;stop-color:#b4b6b8" />
      <stop offset=".372" style="stop-opacity:1;stop-color:#231f20" />
      <stop offset="1" style="stop-opacity:1;stop-color:#231f20" />
    </linearGradient>
    <linearGradient id="eU" x1="0" x2="1" y1="0" y2="0" gradientTransform="matrix(0 24.43066 24.43066 0 304.896 134.34)" gradientUnits="userSpaceOnUse" spreadMethod="pad">
      <stop offset="0" style="stop-opacity:1;stop-color:#b7b9bc" />
      <stop offset=".37" style="stop-opacity:1;stop-color:#231f20" />
      <stop offset="1" style="stop-opacity:1;stop-color:#231f20" />
    </linearGradient>
    <linearGradient id="eV" x1="0" x2="1" y1="0" y2="0" gradientTransform="matrix(0 24.1914 24.1914 0 304.904 134.424)" gradientUnits="userSpaceOnUse" spreadMethod="pad">
      <stop offset="0" style="stop-opacity:1;stop-color:#babcbe" />
      <stop offset=".368" style="stop-opacity:1;stop-color:#231f20" />
      <stop offset="1" style="stop-opacity:1;stop-color:#231f20" />
    </linearGradient>
    <linearGradient id="eW" x1="0" x2="1" y1="0" y2="0" gradientTransform="matrix(0 23.95215 23.95215 0 304.911 134.506)" gradientUnits="userSpaceOnUse" spreadMethod="pad">
      <stop offset="0" style="stop-opacity:1;stop-color:#bdbfc1" />
      <stop offset=".365" style="stop-opacity:1;stop-color:#231f20" />
      <stop offset="1" style="stop-opacity:1;stop-color:#231f20" />
    </linearGradient>
    <linearGradient id="eX" x1="0" x2="1" y1="0" y2="0" gradientTransform="matrix(0 23.71387 23.71387 0 304.918 134.588)" gradientUnits="userSpaceOnUse" spreadMethod="pad">
      <stop offset="0" style="stop-opacity:1;stop-color:#c0c1c4" />
      <stop offset=".363" style="stop-opacity:1;stop-color:#231f20" />
      <stop offset="1" style="stop-opacity:1;stop-color:#231f20" />
    </linearGradient>
    <linearGradient id="eY" x1="0" x2="1" y1="0" y2="0" gradientTransform="matrix(0 23.4746 23.4746 0 304.926 134.67)" gradientUnits="userSpaceOnUse" spreadMethod="pad">
      <stop offset="0" style="stop-opacity:1;stop-color:#c3c5c7" />
      <stop offset=".361" style="stop-opacity:1;stop-color:#231f20" />
      <stop offset="1" style="stop-opacity:1;stop-color:#231f20" />
    </linearGradient>
    <linearGradient id="eZ" x1="0" x2="1" y1="0" y2="0" gradientTransform="matrix(0 23.23535 23.23535 0 304.933 134.753)" gradientUnits="userSpaceOnUse" spreadMethod="pad">
      <stop offset="0" style="stop-opacity:1;stop-color:#c6c8ca" />
      <stop offset=".359" style="stop-opacity:1;stop-color:#231f20" />
      <stop offset="1" style="stop-opacity:1;stop-color:#231f20" />
    </linearGradient>
    <linearGradient id="fa" x1="0" x2="1" y1="0" y2="0" gradientTransform="matrix(0 22.99707 22.99707 0 304.94 134.835)" gradientUnits="userSpaceOnUse" spreadMethod="pad">
      <stop offset="0" style="stop-opacity:1;stop-color:#c9cbcc" />
      <stop offset=".356" style="stop-opacity:1;stop-color:#231f20" />
      <stop offset="1" style="stop-opacity:1;stop-color:#231f20" />
    </linearGradient>
    <linearGradient id="fb" x1="0" x2="1" y1="0" y2="0" gradientTransform="matrix(0 22.75684 22.75684 0 304.948 134.918)" gradientUnits="userSpaceOnUse" spreadMethod="pad">
      <stop offset="0" style="stop-opacity:1;stop-color:#ccced0" />
      <stop offset=".354" style="stop-opacity:1;stop-color:#231f20" />
      <stop offset="1" style="stop-opacity:1;stop-color:#231f20" />
    </linearGradient>
    <linearGradient id="fc" x1="0" x2="1" y1="0" y2="0" gradientTransform="matrix(0 22.51855 22.51855 0 304.955 135)" gradientUnits="userSpaceOnUse" spreadMethod="pad">
      <stop offset="0" style="stop-opacity:1;stop-color:#cfd0d2" />
      <stop offset=".352" style="stop-opacity:1;stop-color:#231f20" />
      <stop offset="1" style="stop-opacity:1;stop-color:#231f20" />
    </linearGradient>
    <linearGradient id="fd" x1="0" x2="1" y1="0" y2="0" gradientTransform="matrix(0 22.2793 22.2793 0 304.962 135.083)" gradientUnits="userSpaceOnUse" spreadMethod="pad">
      <stop offset="0" style="stop-opacity:1;stop-color:#d2d3d5" />
      <stop offset=".35" style="stop-opacity:1;stop-color:#231f20" />
      <stop offset="1" style="stop-opacity:1;stop-color:#231f20" />
    </linearGradient>
    <linearGradient id="fe" x1="0" x2="1" y1="0" y2="0" gradientTransform="matrix(0 22.04004 22.04004 0 304.97 135.165)" gradientUnits="userSpaceOnUse" spreadMethod="pad">
      <stop offset="0" style="stop-opacity:1;stop-color:#d5d7d8" />
      <stop offset=".347" style="stop-opacity:1;stop-color:#231f20" />
      <stop offset="1" style="stop-opacity:1;stop-color:#231f20" />
    </linearGradient>
    <linearGradient id="ff" x1="0" x2="1" y1="0" y2="0" gradientTransform="matrix(0 21.80176 21.80176 0 304.977 135.247)" gradientUnits="userSpaceOnUse" spreadMethod="pad">
      <stop offset="0" style="stop-opacity:1;stop-color:#d8d9db" />
      <stop offset=".345" style="stop-opacity:1;stop-color:#231f20" />
      <stop offset="1" style="stop-opacity:1;stop-color:#231f20" />
    </linearGradient>
    <linearGradient id="fg" x1="0" x2="1" y1="0" y2="0" gradientTransform="matrix(0 21.56152 21.56152 0 304.985 135.33)" gradientUnits="userSpaceOnUse" spreadMethod="pad">
      <stop offset="0" style="stop-opacity:1;stop-color:#dbdcde" />
      <stop offset=".343" style="stop-opacity:1;stop-color:#231f20" />
      <stop offset="1" style="stop-opacity:1;stop-color:#231f20" />
    </linearGradient>
    <linearGradient id="fh" x1="0" x2="1" y1="0" y2="0" gradientTransform="matrix(0 21.32324 21.32324 0 304.992 135.412)" gradientUnits="userSpaceOnUse" spreadMethod="pad">
      <stop offset="0" style="stop-opacity:1;stop-color:#dedfe0" />
      <stop offset=".341" style="stop-opacity:1;stop-color:#231f20" />
      <stop offset="1" style="stop-opacity:1;stop-color:#231f20" />
    </linearGradient>
    <linearGradient id="fj" x1="0" x2="1" y1="0" y2="0" gradientTransform="matrix(0 -10.23926 -10.23926 0 304.63 165.39)" gradientUnits="userSpaceOnUse" spreadMethod="pad">
      <stop offset="0" style="stop-opacity:1;stop-color:#fff" />
      <stop offset="1" style="stop-opacity:1;stop-color:#737477" />
    </linearGradient>
  </defs>
  <g transform="matrix(1 0 0 -1 0 0)">
    <path d="M54.941 166.29c-9.9 0-17.953-8.052-17.953-17.953 0-9.896 8.053-17.95 17.953-17.95h499.21c9.898 0 17.95 8.054 17.95 17.95 0 9.901-8.052 17.953-17.95 17.953z" style="fill:url(#dY)" />
    <path d="M54.903 166.134c-9.808 0-17.785-7.983-17.785-17.801 0-2.27.43-4.507 1.214-6.502 2.578-6.639 9.033-11.363 16.571-11.363h499.301c7.536 0 13.99 4.724 16.569 11.364a17.908 17.908 0 0 1 1.213 6.501c0 9.818-7.976 17.801-17.782 17.801z" style="fill:url(#dZ)" />
    <path d="M54.864 165.976c-9.715 0-17.617-7.914-17.617-17.648 0-2.231.423-4.498 1.195-6.46 2.534-6.608 8.939-11.316 16.422-11.316h499.393c7.482 0 13.886 4.708 16.42 11.317.771 1.962 1.195 4.229 1.195 6.459 0 9.734-7.902 17.648-17.615 17.648z" style="fill:url(#ea)" />
    <path d="M54.825 165.82c-9.622 0-17.448-7.847-17.448-17.496 0-2.194.416-4.489 1.174-6.417 2.492-6.579 8.847-11.273 16.274-11.273h499.486c7.425 0 13.78 4.694 16.272 11.274.758 1.927 1.173 4.223 1.173 6.416 0 9.649-7.825 17.496-17.445 17.496z" style="fill:url(#eb)" />
    <path d="M54.786 165.663c-9.529 0-17.279-7.777-17.279-17.344 0-2.156.408-4.48 1.153-6.376 2.448-6.546 8.754-11.227 16.126-11.227h499.577c7.372 0 13.676 4.681 16.125 11.228.746 1.896 1.153 4.22 1.153 6.375 0 9.567-7.75 17.344-17.278 17.344z" style="fill:url(#ec)" />
    <path d="M54.748 165.506c-9.437 0-17.113-7.709-17.113-17.191 0-2.118.403-4.473 1.134-6.335 2.406-6.516 8.661-11.181 15.979-11.181h499.669c7.316 0 13.57 4.665 15.977 11.182.732 1.862 1.133 4.217 1.133 6.334 0 9.482-7.674 17.191-17.11 17.191z" style="fill:url(#ed)" />
    <path d="M54.709 165.351c-9.344 0-16.943-7.642-16.943-17.039 0-2.082.394-4.465 1.112-6.295 2.364-6.484 8.568-11.136 15.831-11.136h499.76c7.263 0 13.466 4.652 15.829 11.137.72 1.83 1.114 4.213 1.114 6.294 0 9.397-7.6 17.039-16.943 17.039z" style="fill:url(#ee)" />
    <path d="M54.671 165.193c-9.252 0-16.776-7.572-16.776-16.886 0-2.044.387-4.456 1.093-6.251 2.319-6.455 8.474-11.092 15.683-11.092h499.852c7.207 0 13.362 4.637 15.682 11.092.705 1.796 1.092 4.208 1.092 6.251 0 9.314-7.524 16.886-16.774 16.886z" style="fill:url(#ef)" />
    <path d="M54.632 165.037c-9.159 0-16.608-7.505-16.608-16.734 0-2.005.381-4.449 1.073-6.21 2.277-6.423 8.382-11.047 15.535-11.047h499.944c7.154 0 13.257 4.624 15.534 11.048.692 1.761 1.072 4.204 1.072 6.209 0 9.229-7.447 16.734-16.606 16.734z" style="fill:url(#eg)" />
    <path d="M54.593 164.88c-9.066 0-16.439-7.436-16.439-16.582 0-1.967.373-4.438 1.052-6.168 2.235-6.392 8.289-11.002 15.387-11.002h500.036c7.099 0 13.152 4.61 15.387 11.003.678 1.729 1.051 4.201 1.051 6.167 0 9.146-7.373 16.582-16.438 16.582z" style="fill:url(#eh)" />
    <path d="M54.554 164.723c-8.973 0-16.271-7.367-16.271-16.429 0-1.93.367-4.431 1.033-6.127 2.19-6.361 8.195-10.956 15.238-10.956h500.129c7.043 0 13.047 4.595 15.237 10.957.666 1.696 1.033 4.197 1.033 6.126 0 9.062-7.297 16.429-16.27 16.429z" style="fill:url(#ei)" />
    <path d="M54.516 164.568c-8.881 0-16.103-7.3-16.103-16.279 0-1.891.358-4.422 1.011-6.084 2.149-6.331 8.103-10.912 15.092-10.912h500.221c6.987 0 12.941 4.581 15.089 10.912.653 1.664 1.012 4.193 1.012 6.084 0 8.979-7.222 16.279-16.101 16.279z" style="fill:url(#ej)" />
    <path d="M54.477 164.41c-8.788 0-15.935-7.23-15.935-16.125 0-1.853.352-4.414.992-6.043 2.105-6.3 8.009-10.867 14.943-10.867h500.312c6.933 0 12.837 4.567 14.943 10.868.639 1.629.99 4.19.99 6.042 0 8.895-7.146 16.125-15.933 16.125z" style="fill:url(#ek)" />
    <path d="M54.438 164.254c-8.695 0-15.766-7.163-15.766-15.973 0-1.816.344-4.406.971-6.002 2.063-6.268 7.916-10.821 14.795-10.821h500.405c6.878 0 12.731 4.553 14.794 10.822.626 1.596.971 4.186.971 6.001 0 8.81-7.071 15.973-15.765 15.973z" style="fill:url(#el)" />
    <path d="M54.4 164.097c-8.603 0-15.598-7.094-15.598-15.82 0-1.778.336-4.397.95-5.961 2.02-6.237 7.823-10.776 14.648-10.776h500.497c6.823 0 12.625 4.539 14.645 10.777.614 1.563.951 4.182.951 5.96 0 8.726-6.995 15.82-15.596 15.82z" style="fill:url(#em)" />
    <path d="M54.361 163.94c-8.51 0-15.43-7.025-15.43-15.668 0-1.739.331-4.388.931-5.918 1.976-6.207 7.729-10.732 14.499-10.732h500.588c6.77 0 12.522 4.525 14.498 10.733.602 1.529.931 4.178.931 5.917 0 8.643-6.919 15.668-15.429 15.668z" style="fill:url(#en)" />
    <path d="M54.322 163.784c-8.417 0-15.261-6.957-15.261-15.516 0-1.703.322-4.381.91-5.876 1.933-6.176 7.636-10.687 14.351-10.687h500.681c6.714 0 12.415 4.511 14.35 10.687.587 1.496.91 4.175.91 5.876 0 8.559-6.844 15.516-15.26 15.516z" style="fill:url(#eo)" />
    <path d="M54.284 163.627c-8.325 0-15.094-6.888-15.094-15.364 0-1.664.316-4.371.891-5.834 1.89-6.145 7.543-10.642 14.203-10.642h500.772c6.66 0 12.311 4.497 14.202 10.642.575 1.464.89 4.17.89 5.834 0 8.476-6.768 15.364-15.092 15.364z" style="fill:url(#ep)" />
    <path d="M54.245 163.471c-8.232 0-14.925-6.821-14.925-15.211 0-1.628.308-4.364.869-5.795 1.848-6.112 7.451-10.596 14.056-10.596h500.864c6.605 0 12.206 4.484 14.054 10.597.562 1.43.87 4.167.87 5.794 0 8.39-6.692 15.211-14.924 15.211z" style="fill:url(#eq)" />
    <path d="M54.206 163.314c-8.14 0-14.757-6.752-14.757-15.059 0-1.589.301-4.356.85-5.752 1.805-6.082 7.357-10.551 13.907-10.551h500.956c6.55 0 12.103 4.469 13.907 10.552.548 1.396.85 4.163.85 5.751 0 8.307-6.618 15.059-14.757 15.059z" style="fill:url(#er)" />
    <path d="M54.168 163.157c-8.047 0-14.59-6.683-14.59-14.906 0-1.551.295-4.346.83-5.71 1.761-6.051 7.264-10.506 13.76-10.506h501.047c6.496 0 11.998 4.455 13.76 10.506.535 1.364.828 4.159.828 5.71 0 8.223-6.542 14.906-14.588 14.906z" style="fill:url(#es)" />
    <path d="M54.13 163.001c-7.956 0-14.421-6.615-14.421-14.755 0-1.513.286-4.338.809-5.668 1.718-6.02 7.17-10.461 13.612-10.461h501.138c6.441 0 11.893 4.441 13.612 10.461.522 1.33.809 4.156.809 5.668 0 8.14-6.466 14.755-14.421 14.755z" style="fill:url(#et)" />
    <path d="M54.09 162.843c-7.861 0-14.252-6.545-14.252-14.6 0-1.476.28-4.331.789-5.628 1.675-5.989 7.077-10.416 13.463-10.416h501.233c6.385 0 11.787 4.427 13.462 10.417.51 1.297.789 4.152.789 5.627 0 8.055-6.39 14.6-14.251 14.6z" style="fill:url(#eu)" />
    <path d="M54.052 162.688c-7.769 0-14.085-6.479-14.085-14.45 0-1.437.273-4.322.77-5.585 1.631-5.958 6.984-10.372 13.315-10.372h501.323c6.331 0 11.683 4.414 13.315 10.373.496 1.263.769 4.147.769 5.584 0 7.971-6.316 14.45-14.084 14.45z" style="fill:url(#ev)" />
    <path d="M54.014 162.531c-7.677 0-13.917-6.41-13.917-14.297 0-1.4.265-4.314.749-5.544 1.589-5.927 6.891-10.326 13.168-10.326h501.415c6.276 0 11.576 4.399 13.167 10.326.483 1.231.748 4.144.748 5.544 0 7.887-6.239 14.297-13.915 14.297z" style="fill:url(#ew)" />
    <path d="M53.975 162.374c-7.584 0-13.749-6.341-13.749-14.145 0-1.362.259-4.305.728-5.502 1.548-5.896 6.799-10.28 13.021-10.28h501.508c6.22 0 11.471 4.384 13.018 10.28.471 1.197.728 4.141.728 5.502 0 7.804-6.164 14.145-13.746 14.145z" style="fill:url(#ex)" />
    <path d="M53.936 162.218c-7.491 0-13.58-6.274-13.58-13.993 0-1.323.251-4.296.708-5.461 1.504-5.865 6.705-10.235 12.872-10.235h501.599c6.167 0 11.367 4.37 12.871 10.236.457 1.164.708 4.137.708 5.46 0 7.719-6.088 13.993-13.579 13.993z" style="fill:url(#ey)" />
    <path d="M53.897 162.06c-7.398 0-13.411-6.203-13.411-13.839 0-1.286.244-4.289.687-5.419 1.461-5.835 6.613-10.191 12.724-10.191h501.692c6.111 0 11.262 4.356 12.722 10.192.445 1.129.689 4.132.689 5.418 0 7.636-6.014 13.839-13.411 13.839z" style="fill:url(#ez)" />
    <path d="M53.859 161.905c-7.306 0-13.245-6.137-13.245-13.689 0-1.248.238-4.28.669-5.377 1.418-5.803 6.519-10.146 12.576-10.146h501.783c6.056 0 11.156 4.343 12.575 10.147.432 1.098.668 4.129.668 5.376 0 7.552-5.938 13.689-13.243 13.689z" style="fill:url(#eA)" />
    <path d="M53.82 161.748c-7.213 0-13.075-6.069-13.075-13.536 0-1.211.229-4.271.647-5.335 1.374-5.773 6.425-10.102 12.428-10.102h501.875c6.002 0 11.052 4.329 12.427 10.102.418 1.064.647 4.124.647 5.335 0 7.467-5.862 13.536-13.074 13.536z" style="fill:url(#eB)" />
    <path d="M53.781 161.59c-7.12 0-12.907-5.998-12.907-13.382 0-1.173.222-4.264.628-5.294 1.331-5.741 6.331-10.056 12.279-10.056h501.967c5.947 0 10.947 4.315 12.279 10.056.406 1.031.628 4.121.628 5.294 0 7.384-5.787 13.382-12.907 13.382z" style="fill:url(#eC)" />
    <path d="M53.743 161.435c-7.028 0-12.74-5.931-12.74-13.232 0-1.135.216-4.253.608-5.252 1.288-5.711 6.238-10.01 12.132-10.01h502.058c5.893 0 10.843 4.299 12.132 10.011.392.998.607 4.117.607 5.251 0 7.301-5.711 13.232-12.739 13.232z" style="fill:url(#eD)" />
    <path d="M53.704 161.277c-6.936 0-12.571-5.861-12.571-13.078 0-1.098.208-4.246.586-5.211 1.247-5.679 6.147-9.964 11.985-9.964h502.15c5.839 0 10.739 4.285 11.985 9.965.379.964.587 4.113.587 5.21 0 7.217-5.636 13.078-12.572 13.078z" style="fill:url(#eE)" />
    <path d="M53.665 161.121c-6.843 0-12.403-5.794-12.403-12.927 0-1.058.201-4.237.567-5.168 1.204-5.649 6.053-9.921 11.836-9.921h502.243c5.784 0 10.633 4.272 11.836 9.921.366.931.566 4.11.566 5.168 0 7.133-5.56 12.927-12.402 12.927z" style="fill:url(#eF)" />
    <path d="M53.626 160.965c-6.75 0-12.234-5.726-12.234-12.775 0-1.021.194-4.229.546-5.127 1.16-5.618 5.96-9.876 11.688-9.876h502.335c5.728 0 10.528 4.258 11.689 9.876.352.899.545 4.107.545 5.127 0 7.049-5.484 12.775-12.234 12.775z" style="fill:url(#eG)" />
    <path d="M53.588 160.807c-6.658 0-12.067-5.656-12.067-12.62 0-.985.187-4.222.527-5.086 1.117-5.587 5.866-9.831 11.54-9.831h502.427c5.672 0 10.423 4.244 11.539 9.831.341.865.527 4.102.527 5.086 0 6.964-5.409 12.62-12.066 12.62z" style="fill:url(#eH)" />
    <path d="M53.549 160.652c-6.565 0-11.898-5.589-11.898-12.471 0-.945.179-4.213.506-5.043 1.074-5.556 5.773-9.786 11.392-9.786h502.519c5.618 0 10.317 4.23 11.392 9.787.326.83.506 4.097.506 5.042 0 6.882-5.335 12.471-11.898 12.471z" style="fill:url(#eI)" />
    <path d="M53.51 160.494c-6.472 0-11.729-5.519-11.729-12.316 0-.908.172-4.204.485-5.003 1.031-5.525 5.681-9.74 11.244-9.74h502.611c5.564 0 10.213 4.215 11.244 9.741.314.798.485 4.095.485 5.002 0 6.797-5.257 12.316-11.729 12.316z" style="fill:url(#eJ)" />
    <path d="M53.473 160.338c-6.381 0-11.563-5.452-11.563-12.166 0-.869.165-4.195.466-4.96.988-5.493 5.587-9.694 11.097-9.694h502.702c5.509 0 10.107 4.201 11.096 9.694.3.765.465 4.092.465 4.96 0 6.714-5.182 12.166-11.561 12.166z" style="fill:url(#eK)" />
    <path d="M53.434 160.182c-6.288 0-11.394-5.384-11.394-12.013 0-.832.157-4.188.444-4.919.946-5.463 5.495-9.65 10.95-9.65h502.794c5.454 0 10.002 4.187 10.947 9.65.288.731.446 4.087.446 4.919 0 6.629-5.108 12.013-11.393 12.013z" style="fill:url(#eL)" />
    <path d="M53.394 160.024c-6.193 0-11.225-5.314-11.225-11.859 0-.795.151-4.179.425-4.878.902-5.431 5.401-9.606 10.8-9.606h502.887c5.4 0 9.897 4.175 10.8 9.607.274.698.425 4.082.425 4.877 0 6.545-5.031 11.859-11.225 11.859z" style="fill:url(#eM)" />
    <path d="M53.356 159.868c-6.101 0-11.057-5.246-11.057-11.708 0-.757.143-4.171.404-4.836.86-5.4 5.308-9.56 10.653-9.56h502.978c5.344 0 9.793 4.16 10.653 9.561.261.665.404 4.08.404 4.835 0 6.462-4.956 11.708-11.057 11.708z" style="fill:url(#eN)" />
    <path d="M53.318 159.711c-6.009 0-10.89-5.177-10.89-11.555 0-.719.137-4.162.384-4.794.817-5.37 5.216-9.515 10.506-9.515h503.07c5.289 0 9.687 4.145 10.504 9.515.248.632.384 4.075.384 4.794 0 6.378-4.88 11.555-10.888 11.555z" style="fill:url(#eO)" />
    <path d="M53.279 159.555c-5.916 0-10.722-5.11-10.722-11.403 0-.682.13-4.154.365-4.752.773-5.339 5.122-9.47 10.357-9.47H556.44c5.236 0 9.584 4.131 10.357 9.47.235.598.365 4.07.365 4.752 0 6.293-4.806 11.403-10.722 11.403z" style="fill:url(#eP)" />
    <path d="M53.24 159.398c-5.823 0-10.552-5.041-10.552-11.251 0-.643.121-4.145.343-4.71.731-5.308 5.029-9.425 10.209-9.425h503.254c5.18 0 9.478 4.117 10.209 9.425.221.565.344 4.068.344 4.71 0 6.21-4.73 11.251-10.553 11.251z" style="fill:url(#eQ)" />
    <path d="M53.202 159.242c-5.731 0-10.385-4.973-10.385-11.098 0-.606.115-4.138.324-4.671.687-5.275 4.934-9.379 10.061-9.379h503.345c5.126 0 9.374 4.104 10.061 9.38.209.532.324 4.064.324 4.67 0 6.125-4.653 11.098-10.385 11.098z" style="fill:url(#eR)" />
    <path d="M53.163 159.085c-5.638 0-10.217-4.904-10.217-10.946 0-.568.107-4.129.304-4.628.644-5.246 4.842-9.335 9.913-9.335H556.6c5.071 0 9.269 4.089 9.914 9.335.195.5.303 4.06.303 4.628 0 6.042-4.579 10.946-10.217 10.946z" style="fill:url(#eS)" />
    <path d="M53.124 158.928c-5.545 0-10.048-4.835-10.048-10.793 0-.531.101-4.122.283-4.586.601-5.215 4.749-9.291 9.765-9.291h503.53c5.016 0 9.163 4.076 9.765 9.291.182.465.283 4.056.283 4.586 0 5.958-4.503 10.793-10.048 10.793z" style="fill:url(#eT)" />
    <path d="M53.086 158.772c-5.453 0-9.881-4.769-9.881-10.642 0-.491.094-4.111.263-4.544.559-5.184 4.656-9.245 9.618-9.245h503.621c4.961 0 9.058 4.061 9.617 9.245.17.433.263 4.053.263 4.544 0 5.873-4.427 10.642-9.88 10.642z" style="fill:url(#eU)" />
    <path d="M53.047 158.615c-5.36 0-9.712-4.699-9.712-10.489 0-.454.086-4.104.243-4.503.516-5.153 4.562-9.199 9.469-9.199h503.714c4.906 0 8.953 4.046 9.469 9.199.157.399.243 4.049.243 4.503 0 5.79-4.352 10.489-9.712 10.489z" style="fill:url(#eV)" />
    <path d="M53.008 158.458c-5.268 0-9.543-4.63-9.543-10.336 0-.417.079-4.096.222-4.462.472-5.121 4.469-9.154 9.321-9.154h503.806c4.851 0 8.848 4.033 9.321 9.155.143.365.222 4.045.222 4.461 0 5.706-4.276 10.336-9.543 10.336z" style="fill:url(#eW)" />
    <path d="M52.969 158.302c-5.175 0-9.376-4.563-9.376-10.185 0-.377.072-4.086.204-4.418.429-5.093 4.376-9.111 9.172-9.111h503.898c4.797 0 8.743 4.018 9.173 9.111.131.332.202 4.041.202 4.418 0 5.622-4.2 10.185-9.375 10.185z" style="fill:url(#eX)" />
    <path d="M52.931 158.145c-5.083 0-9.207-4.493-9.207-10.032 0-.34.064-4.079.182-4.378.386-5.06 4.283-9.064 9.025-9.064H556.92c4.742 0 8.638 4.004 9.025 9.064.118.3.183 4.038.183 4.378 0 5.539-4.125 10.032-9.208 10.032z" style="fill:url(#eY)" />
    <path d="M52.892 157.989c-4.99 0-9.039-4.426-9.039-9.881 0-.302.057-4.069.161-4.336.344-5.029 4.191-9.019 8.878-9.019h504.082c4.686 0 8.533 3.99 8.877 9.019.104.267.162 4.035.162 4.336 0 5.455-4.05 9.881-9.039 9.881z" style="fill:url(#eZ)" />
    <path d="M52.853 157.832c-4.897 0-8.871-4.358-8.871-9.727 0-.266.051-4.062.142-4.296.301-4.998 4.097-8.974 8.729-8.974h504.173c4.633 0 8.429 3.976 8.73 8.975.092.233.141 4.029.141 4.295 0 5.369-3.973 9.727-8.871 9.727z" style="fill:url(#fa)" />
    <path d="M52.815 157.675c-4.805 0-8.703-4.288-8.703-9.575 0-.227.043-4.053.121-4.252.259-4.968 4.004-8.93 8.582-8.93H557.08c4.578 0 8.324 3.962 8.582 8.93.078.199.121 4.025.121 4.252 0 5.287-3.899 9.575-8.703 9.575z" style="fill:url(#fb)" />
    <path d="M52.776 157.519c-4.712 0-8.535-4.22-8.535-9.423 0-.19.036-4.046.102-4.211.214-4.937 3.91-8.885 8.433-8.885h504.356c4.524 0 8.22 3.948 8.435 8.885.065.165.101 4.021.101 4.211 0 5.203-3.823 9.423-8.536 9.423z" style="fill:url(#fc)" />
    <path d="M52.738 157.362c-4.62 0-8.367-4.152-8.367-9.271 0-.151.029-4.036.081-4.169.172-4.905 3.818-8.839 8.286-8.839h504.448c4.468 0 8.115 3.934 8.287 8.839.051.133.081 4.018.081 4.169 0 5.119-3.748 9.271-8.368 9.271z" style="fill:url(#fd)" />
    <path d="M52.699 157.205c-4.527 0-8.198-4.083-8.198-9.118 0-.114.021-4.028.061-4.128.127-4.874 3.724-8.794 8.137-8.794H557.24c4.413 0 8.009 3.92 8.138 8.794.039.1.06 4.014.06 4.128 0 5.035-3.672 9.118-8.198 9.118z" style="fill:url(#fe)" />
    <path d="M52.66 157.049c-4.433 0-8.03-4.015-8.03-8.966 0-.076.015-4.019.041-4.086.085-4.844 3.631-8.75 7.989-8.75h504.633c4.358 0 7.904 3.906 7.99 8.75.027.067.04 4.01.04 4.086 0 4.951-3.595 8.966-8.03 8.966z" style="fill:url(#ff)" />
    <path d="M52.621 156.892c-4.341 0-7.861-3.947-7.861-8.814 0-.037.007-4.011.019-4.044.044-4.812 3.539-8.704 7.842-8.704h504.725c4.304 0 7.799 3.892 7.842 8.704.013.033.021 4.007.021 4.044 0 4.867-3.522 8.814-7.863 8.814z" style="fill:url(#fg)" />
    <path d="M52.583 156.735c-4.249 0-7.694-3.877-7.694-8.661v-4.003c0-4.781 3.445-8.659 7.694-8.659H557.4c4.249 0 7.694 3.878 7.694 8.659v4.003c0 4.784-3.445 8.661-7.694 8.661z" style="fill:url(#fh)" />
    <path d="M53.404 165.389c-2.847 0-5.154-2.29-5.154-5.119 0-2.828 2.307-5.12 5.154-5.12h502.453c2.846 0 5.153 2.292 5.153 5.12 0 2.829-2.307 5.119-5.153 5.119z" style="fill:url(#fj)" />
  </g>
  <!--
  -->
</svg>